{"scene":0,"asset":{"generator":"ImageToStl.com","version":"2.0"},"scenes":[{"name":"Scene","nodes":[0]}],"nodes":[{"name":"Node0","children":[1]},{"name":"Node1","mesh":0}],"materials":[{"name":"x1","pbrMetallicRoughness":{"baseColorFactor":[0.85,0.85,0.85,1.0],"metallicFactor":0.05,"roughnessFactor":0.5},"doubleSided":true}],"meshes":[{"name":"Mesh0","primitives":[{"indices":2,"material":0,"attributes":{"POSITION":0,"NORMAL":1}}]}],"accessors":[{"bufferView":0,"componentType":5126,"count":12262,"type":"VEC3","min":[-82.0816,-98.19332,-5.0],"max":[-6.3194356,43.674866,25.0]},{"bufferView":1,"componentType":5126,"count":12262,"type":"VEC3"},{"bufferView":2,"componentType":5123,"count":16536,"type":"SCALAR"}],"bufferViews":[{"target":34962,"buffer":0,"byteLength":147144,"byteOffset":0},{"target":34962,"buffer":0,"byteLength":147144,"byteOffset":147144},{"target":34963,"buffer":0,"byteLength":33072,"byteOffset":294288}],"buffers":[{"byteLength":327360,"uri":"data:application/octet-stream;base64,"}]}